<svg width="28" height="28" viewBox="0 0 28 28" fill="none" xmlns="http://www.w3.org/2000/svg">
<path fill-rule="evenodd" clip-rule="evenodd" d="M14 0.666748C6.63625 0.666748 0.666687 6.63625 0.666687 14.0001C0.666687 21.3638 6.63625 27.3334 14 27.3334C21.3639 27.3334 27.3334 21.3639 27.3334 14.0001C27.3334 6.63625 21.3639 0.666748 14 0.666748ZM14 24.6667C8.11844 24.6667 3.33337 19.8817 3.33337 14.0001C3.33337 8.11844 8.11837 3.33344 14 3.33344C19.8817 3.33344 24.6667 8.11844 24.6667 14.0001C24.6667 19.8817 19.8817 24.6667 14 24.6667ZM15.6696 8.66675C15.6696 9.6335 14.9658 10.3334 14.0136 10.3334C13.0229 10.3334 12.3363 9.63344 12.3363 8.64825C12.3363 7.70137 13.0414 7.00012 14.0136 7.00012C14.9658 7.00012 15.6696 7.70137 15.6696 8.66675ZM12.6696 12.6667H15.3363V20.6667H12.6696V12.6667Z" fill="#262262"/>
</svg>
